<?xml version="1.0" encoding="UTF-8"?><svg id="Ebene_1" xmlns="http://www.w3.org/2000/svg" viewBox="0 0 1030.26 788.98"><defs><style>.cls-1{fill:#ee776d;}.cls-2{fill:#161616;}.cls-3{fill:#099ad7;}</style></defs><path class="cls-3" d="m643.77,186.78c-.78-2.31-1.63-4.62-2.54-6.86-3.02-7.74-6.7-15.08-10.89-22.01-2.89-4.88-6.11-9.56-9.52-14.01,1.92-2.54,3.64-4.58,6.24-8.06,4.45-6.01,6.66-9,6.08-10.18-1.27-2.5-6.96-1.2-9-.91-5.69.88-11.31,2.11-16.87,3.54-11.77,3.09-23.31,7.15-34.91,10.86-20.68,6.6-41.42,13.56-60.79,23.47-2.47,1.27-5.04,2.5-7.38,4-14.17,8.09-32.38,21.26-43.01,34.49-6.27,7.8-9.95,15.67-8.58,22.53.1.39.2.78.29,1.17,3.22,11.12,21.2,22.33,37.48,23.57,9.04.68,17.55-1.69,18.4.68.81,2.31-6.11,7.09-11.48,9.82-17.98,9.13-37.19,4.71-43.33,3.19-8.35-2.05-24.74-6.05-35.79-21.03-.16-.23-.33-.46-.49-.68-4.68-6.57-6.7-12.91-7.77-17.13-.23-.81-.39-1.56-.55-2.21-5.14-21.23,2.5-39.21,6.83-48.96,12.42-28.12,35.08-43.66,49.8-53.64,26.07-17.62,48.76-23.34,47.46-28.64-.81-3.41-10.96-3.71-17.46-3.9,0,0-21.13,1.11-40.64,7.7-68.27,23.05-108.77,90.89-99.83,159.75,1.11,8.58,2.99,17.13,5.66,25.65.33,1.01.65,1.98.98,2.99,1.33,3.97,2.86,7.77,4.45,11.51,9.98,21.65,22.33,32.48,30.49,37.9.42.29.85.55,1.27.81,0,0,3.28,2.11,6.92,3.9,15.34,7.61,38.29,10.05,61.9,5.43.42-.06.88-.16,1.3-.29,2.18-.42,4.36-.94,6.53-1.56,15.25-4,30.4-11.05,43.63-21.65,3.93-3.15,9.2-7.44,14.04-13.26,4.68-5.56,8.97-12.45,11.48-21.07,1.33-4.68,4-14.37.85-26.01-3.35-12.19-11.15-19.6-14.24-22.24-18.76-15.96-42.2-8.03-43.5-13.39-.94-3.84,9.79-13.69,25.23-20.58,6.86-3.06,14.69-5.56,22.85-6.63,10.44-1.46,21.39-.59,31.6,4.19,16.58,7.77,24.64,22.85,26.98,27.34,10.14,19.57,6.99,38.26,5.53,46.29-.33,1.85-.72,3.64-1.17,5.36-2.6,10.04-6.79,18.17-11.09,24.67-3.25,4.94-6.53,8.94-9.13,12.06-26.27,31.5-62.87,41.25-76.69,44.73-28.7,7.22-47.33,3.93-47.82,8.19-.59,5.14,26.01,15.05,53.41,15.31,1.59,0,22.69-.75,43.59-7.8,48.24-16.32,82.6-54.94,95.48-100.48,2.54-8.97,4.23-18.2,5.04-27.6,1.72-19.83-.55-40.31-7.31-60.34Z"/><path class="cls-1" d="m736.45,180.73c-7.28-21.52-48.4-28.93-106.11-22.82,4.19,6.92,7.87,14.27,10.89,22.01,24.02,1.07,40.08,7.05,43.85,18.17,4.39,13-8.84,30.66-34,49.02-14.14,10.31-32.09,20.87-52.79,30.92-2.6,10.04-6.79,18.17-11.09,24.67,21.36-8.91,41.12-18.33,58.84-27.99,61.73-33.61,98.6-69.7,90.41-93.98Z"/><path class="cls-1" d="m397.1,331.38c-28.51-.03-47.75-6.05-51.92-18.37-3.19-9.43,2.86-21.26,15.99-34.04-2.67-8.52-4.55-17.07-5.66-25.65-44.08,28.38-68.56,56.82-61.7,77.04,9.85,29.22,82.05,32.41,173.37,11.15.42-.06.88-.16,1.3-.29,2.18-.49,4.32-1.01,6.53-1.56,15.25-4,30.4-11.05,43.63-21.65,3.93-3.15,9.2-7.44,14.04-13.26-.26.1-.55.2-.81.29-51.59,17.42-100.06,26.36-134.78,26.33Z"/><g id="kJwvN2.tif"><path class="cls-2" d="m397.55,475.58c8.75-.19,17.41.94,25.44,4.34,14.38,6.08,25.12,18.94,31.39,33.24,6.27,14.3,8.51,30.02,9.67,45.59,2.52,33.74.28,67.65-2.26,101.39-.14,1.89-.29,3.8-.94,5.58-1.95,5.34-8.01,8.17-13.69,8.52s-11.29-1.17-16.95-1.78c-13.55-1.45-27.24,2.42-40.8,1.02-17.41-1.79-33.38-13.03-41.53-28.43-8.63-16.31-10.64-35.95-5.39-53.74,4.33-14.66,13.88-27.87,26.94-35.81,13.86-8.42,30.67-10.57,46.88-10.27,1.39.03,2.9.04,4.03-.78,2.2-1.59,1.55-4.98.62-7.53-3.3-9.06-7.75-18.51-16.16-23.22-6.05-3.38-13.45-3.78-20.21-2.27-6.77,1.52-13,4.81-18.89,8.47-2.86,1.78-5.94,3.74-9.3,3.49-4.41-.32-7.58-4.21-10.14-7.81-4.23-5.96-8.5-13.47-5.58-20.17,1.44-3.3,4.4-5.68,7.46-7.58,8.25-5.11,17.81-7.66,27.32-9.56,7.22-1.45,14.68-2.54,22.07-2.7Zm25.44,111.08h.15v-4.83c0-3.92-2.42-4.38-5.85-4.26-10.34.35-19.42,1.08-28.8,5.73-7.88,3.9-13.74,11.61-15.53,20.22-2.11,10.18,1.35,21.21,8.52,28.73,9.48,9.97,25.29,14.32,38.27,9.26.78-.3,1.57-.68,2.03-1.37.42-.66.46-1.5.47-2.28.07-4.43.63-51.18.76-51.18l-.02-.02Z"/><path class="cls-2" d="m491.23,474.12c14.55-3.01,15.72,9.11,17.49,17.85,7.37,36.61,17.87,72.51,28.33,108.36.59,2.03,1.45,3.58,2.06,5.59.47,1.56,1.15,2.52,1.86,1.81.35-.35,1.42-2.26,1.56-2.74,10.29-35.65,20.79-71.11,28.87-107.32,1.37-6.17,2.4-13.93,7.42-18.36,6.98-6.15,17.68-2.37,25.2.54,1.54.59,3.09,1.22,4.43,2.18,8.99,6.52,4.61,16.63,2.45,25.34-3.04,12.27-6.22,24.51-9.52,36.73-5.7,21.13-11.73,42.17-18.09,63.12-3.13,10.33-6.34,20.62-9.63,30.88-3.04,9.47-5.41,19.86-9.94,28.75-1.15,2.25-2.87,4.36-5.24,5.22-1.52.56-3.19.56-4.82.54-6.73-.03-13.45-.07-20.18-.1-6.73-.03-9.7.35-14.57-4.43-4.26-4.19-5.36-12.12-7.18-17.68-2.38-7.2-4.72-14.4-7.03-21.64-4.51-14.15-8.87-28.33-13.08-42.56-4.61-15.62-9.06-31.27-13.32-46.99-3.94-14.55-9.3-29.61-11.76-44.47-.9-5.42.02-10.81,4.87-14.12,6.09-4.15,12.81-5.07,19.82-6.52Z"/><path class="cls-2" d="m646.92,474.12c14.55-3.01,15.72,9.11,17.49,17.85,7.37,36.61,17.87,72.51,28.33,108.36.59,2.03,1.45,3.58,2.06,5.59.47,1.56,1.15,2.52,1.86,1.81.35-.35,1.42-2.26,1.56-2.74,10.29-35.65,20.79-71.11,28.87-107.32,1.37-6.17,2.4-13.93,7.42-18.36,6.98-6.15,17.68-2.37,25.2.54,1.54.59,3.09,1.22,4.43,2.18,8.99,6.52,4.61,16.63,2.45,25.34-3.04,12.27-6.22,24.51-9.52,36.73-5.7,21.13-11.73,42.17-18.09,63.12-3.13,10.33-6.34,20.62-9.63,30.88-3.04,9.47-5.41,19.86-9.94,28.75-1.15,2.25-2.87,4.36-5.24,5.22-1.52.56-3.19.56-4.82.54-6.73-.03-13.45-.07-20.18-.1-6.73-.03-9.7.35-14.57-4.43-4.26-4.19-5.36-12.12-7.18-17.68-2.38-7.2-4.72-14.4-7.03-21.64-4.51-14.15-8.87-28.33-13.08-42.56-4.61-15.62-9.06-31.27-13.32-46.99-3.94-14.55-9.3-29.61-11.76-44.47-.9-5.42.02-10.81,4.87-14.12,6.09-4.15,12.81-5.07,19.82-6.52Z"/><path class="cls-2" d="m819.95,560.84v.14c0,18.73.02,37.46.05,56.18,0,9.36.02,18.73.03,28.09,0,7.17,2.08,17.61-2.89,23.56-4.41,5.27-11.48,6.17-17.95,5.68-15.31-1.15-21.13-8.45-21.25-23.68-.19-25.47-.37-50.94-.56-76.42-.07-9.14-1.29-18.21-1.01-27.36.26-8.56,1.15-20.17,8.75-25.69,4.6-3.34,10.85-3.19,16.24-2.61,5.5.6,11.67,1.07,15.7,5.31,3.84,4.04,2.91,10.24,2.91,15.33,0,7.15,0,14.3-.02,21.47Z"/><path class="cls-2" d="m801.74,475.03c7.36.1,15.75,1,19.53,8.13,4.12,7.78,3.82,22.09-4.5,27.16-2.55,1.56-5.51,2.26-8.47,2.69-7.12,1.01-18.76,1.5-24.34-3.97-2.77-2.72-3.65-6.76-3.75-10.51-.12-4.12-.81-10.21.86-14.06,3.28-7.54,11.59-9.45,19.08-9.44.52,0,1.05,0,1.58.01Z"/><g id="sJDuph.tif"><path class="cls-2" d="m334.89,553.95v.68c0,.41-.12.9-.3,1.18-1.2,2.11-3.13,3.33-6.05,3.79-2.5.39-5.09.64-7.72.76-.64.03-1.3.05-1.94.05-4.54,0-9.19-.74-13.54-2.01l-.64-.19c-1.52-.42-3.09-.88-4.07-1.57-2.65-1.91-3.74-3.96-3.5-6.63.34-3.72.32-7.47.24-10.97-.14-6.46-.44-21.53-10.72-25.2-1.01-.37-2.1-.54-3.35-.54-.91,0-1.74.1-2.45.19-6.17.79-11.85,4.29-16.82,10.36-3.57,4.36-6.51,10.46-8.27,17.21-1.86,7.08-.91,13.81,2.64,18.93,2.55,3.67,5.85,6.78,9.8,9.21,1.4.88,2.81,1.74,4.19,2.62,2.92,1.84,5.95,3.72,8.98,5.54,1.72,1.05,3.53,2.1,5.34,3.18,15.96,9.41,34.03,20.08,40.38,37.37.66,1.81,1.12,3.8,1.39,5.92,1.98,16.51-4.04,30.14-16.95,38.39-12,7.66-26.99,11.7-43.36,11.7-10.42,0-21.05-1.69-31.02-5.01-10.27-3.42-19.26-8.79-28.2-14.78-1.59-1.05-2.4-1.86-2.43-2.37-.02-.39-.03-.73-.05-1.05-.08-1.54-.12-2.23.29-4.63,1.77-10.16,11.49-17.6,20-22.24.56-.3,1.22-.46,1.89-.46,2.55,0,4.68,1.93,6.79,3.17,2.64,1.55,5.33,3.02,8.1,4.3,7.62,3.52,15.97,5.02,24.32,5.02,5.19,0,10.58-.64,15.99-1.91,3.36-.78,4.39-2.64,4.65-4.07.68-3.6-2.97-6.14-5.41-7.83,0,0-.42-.29-.42-.29-13.17-9.32-27.79-16.27-40.7-26.01-2.59-1.94-4.73-3.82-6.52-5.7-6.66-7-11.12-13.12-14.03-19.29-6.58-13.86-4.21-30-2.23-38.4,4.13-17.27,14.74-32.85,28.66-43.76,9.87-7.75,22.26-13.01,34.95-13.01,1.61,0,3.23.08,4.83.27,16.73,1.81,30.76,12.15,39.52,29.12,7.94,15.42,7.88,31.69,7.78,48.97Z"/></g></g></svg>